Coordinates
version=1
nRows=32
nColumns=22
inDegrees=yes

Units are S.I. units (second, meters, Newtons, ...)
If the header above contains a line with 'inDegrees', this indicates whether rotational values are in degrees (yes) or radians (no).

endheader
time	pelvis_tilt	pelvis_list	pelvis_rotation	pelvis_tx	pelvis_ty	pelvis_tz	hip_flexion_r	hip_adduction_r	hip_rotation_r	knee_angle_r	ankle_angle_r	subtalar_angle_r	hip_flexion_l	hip_adduction_l	hip_rotation_l	knee_angle_l	ankle_angle_l	subtalar_angle_l	lumbar_extension	lumbar_bending	lumbar_rotation
      1.14000000	    -11.55563552	      6.64987638	    -24.38549366	     -1.29457030	      0.93559492	     -0.33064148	     37.95996609	      0.58747090	      2.69281043	    -55.54092149	     28.30620184	     -8.38369791	     22.34865645	      6.28017056	     -0.29725986	    -34.37173663	     35.81302362	     -9.25945907	     -4.29809769	     -5.74808469	      7.51857975
      1.15000000	    -11.58969044	      6.88514446	    -24.29800804	     -1.29082133	      0.93386287	     -0.33000934	     39.51971777	      0.44527117	      2.56277066	    -57.16438342	     28.07503559	     -8.44628869	     22.35324601	      6.67601859	     -0.03366272	    -34.59390952	     36.01719335	     -9.48592282	     -4.80063132	     -5.95203247	      7.20915083
      1.16000000	    -11.69506087	      7.10475453	    -24.15890335	     -1.28693355	      0.93204598	     -0.32937173	     41.13154192	      0.32964140	      2.42453204	    -58.61768226	     27.85919319	     -8.44918028	     22.40725389	      7.02309987	      0.21818159	    -34.81275589	     36.24497106	     -9.77977559	     -5.26683629	     -6.09353604	      6.82773833
      1.17000000	    -11.79032103	      7.31525366	    -23.96135185	     -1.28282177	      0.93028400	     -0.32872753	     42.71149814	      0.16082163	      2.23237260	    -59.89544743	     27.67336875	     -8.41236223	     22.40336001	      7.37293564	      0.48691324	    -34.97738506	     36.45147410	     -9.99528352	     -5.77729112	     -6.22698760	      6.42359479
      1.18000000	    -11.88413016	      7.51790970	    -23.70531302	     -1.27848365	      0.92856317	     -0.32806110	     44.25782249	     -0.06272825	      1.99136056	    -60.98745397	     27.52456966	     -8.36734274	     22.35435840	      7.71437082	      0.75038018	    -35.09695769	     36.62562812	    -10.11042565	     -6.32088432	     -6.34551484	      5.97394421
      1.19000000	    -12.04112585	      7.72082107	    -23.40638241	     -1.27397513	      0.92676445	     -0.32732632	     45.83106126	     -0.29296772	      1.74399214	    -61.88872382	     27.37323585	     -8.27984351	     22.34027396	      8.01684653	      0.99196291	    -35.19643009	     36.81754398	    -10.19861853	     -6.81688056	     -6.42781614	      5.48852896
      1.20000000	    -12.19616253	      7.91816426	    -23.05490557	     -1.26919532	      0.92501070	     -0.32653070	     47.35116101	     -0.58520052	      1.45279463	    -62.59822665	     27.23640301	     -8.18985843	     22.27222085	      8.30916892	      1.22398247	    -35.24105902	     36.97318944	    -10.19679321	     -7.33258661	     -6.49669929	      4.97538704
      1.21000000	    -12.40629995	      8.11930669	    -22.66584743	     -1.26420102	      0.92318710	     -0.32562181	     48.87210431	     -0.89350233	      1.15833438	    -63.11751496	     27.08951352	     -8.05375233	     22.22900450	      8.56460876	      1.42337882	    -35.26568085	     37.12390041	    -10.14558831	     -7.79493913	     -6.54075883	      4.42438923
      1.22000000	    -12.63687279	      8.32191677	    -22.23407910	     -1.25890133	      0.92136081	     -0.32463786	     50.34612653	     -1.25364442	      0.83943102	    -63.44991804	     26.93089939	     -7.87906516	     22.15797603	      8.80632910	      1.60651097	    -35.24144815	     37.24772911	    -10.04288021	     -8.23320966	     -6.56240739	      3.85743746
      1.23000000	    -12.87813230	      8.52621649	    -21.76822151	     -1.25327363	      0.91955440	     -0.32352597	     51.75408572	     -1.66065726	      0.49993498	    -63.60086800	     26.75495477	     -7.67020331	     22.04060118	      9.03518878	      1.77708004	    -35.15619496	     37.33915595	     -9.90802139	     -8.64962509	     -6.57649349	      3.26134821
      1.24000000	    -13.15967726	      8.74198874	    -21.27589895	     -1.24728292	      0.91772513	     -0.32229252	     53.12069385	     -2.10150546	      0.16038842	    -63.57673398	     26.53548603	     -7.35459522	     21.89967670	      9.24983299	      1.93308570	    -34.99265040	     37.42887863	     -9.73176160	     -8.99474495	     -6.57436440	      2.66393667
      1.25000000	    -13.41739764	      8.96333709	    -20.75346997	     -1.24087253	      0.91598499	     -0.32095798	     54.37483665	     -2.61153423	     -0.19810597	    -63.39358923	     26.32263658	     -7.01809891	     21.66006674	      9.48007797	      2.09950868	    -34.73782565	     37.46373270	     -9.54743311	     -9.34238225	     -6.57333100	      2.03131106
      1.26000000	    -13.65568783	      9.18781021	    -20.20870699	     -1.23401279	      0.91434785	     -0.31951274	     55.51101830	     -3.17461904	     -0.56377512	    -63.05810113	     26.12460125	     -6.69429272	     21.31118581	      9.72233923	      2.28796590	    -34.36895508	     37.45262073	     -9.36321715	     -9.68233655	     -6.56536351	      1.36214662
      1.27000000	    -13.94471183	      9.42718205	    -19.63878458	     -1.22678154	      0.91264999	     -0.31795481	     56.62352913	     -3.78101327	     -0.95829644	    -62.61378294	     25.88618585	     -6.13733362	     20.95942557	      9.95483518	      2.47245799	    -33.94260008	     37.47683636	     -9.10063238	     -9.92953781	     -6.54617482	      0.71495764
      1.28000000	    -14.22553706	      9.65894528	    -19.04486135	     -1.21911199	      0.91102646	     -0.31627447	     57.62783720	     -4.42751887	     -1.37760521	    -62.06070912	     25.67560528	     -5.58790678	     20.50764800	     10.18813711	      2.70465464	    -33.41125231	     37.46775615	     -8.82237711	    -10.15997797	     -6.50687747	      0.03576727
      1.29000000	    -14.52907930	      9.88249856	    -18.42769367	     -1.21105045	      0.90940260	     -0.31445865	     58.56421389	     -5.10037958	     -1.82915609	    -61.43012943	     25.46728833	     -4.99420332	     20.00255849	     10.40687440	      2.98517344	    -32.80401593	     37.45059604	     -8.51322027	    -10.33928141	     -6.44374109	     -0.64533949
      1.30000000	    -14.84958527	     10.09347218	    -17.80404593	     -1.20259870	      0.90775208	     -0.31251869	     59.43694326	     -5.79023932	     -2.31425106	    -60.75448756	     25.23487794	     -4.34646408	     19.44787169	     10.60271648	      3.28636587	    -32.13991508	     37.43622671	     -8.18184059	    -10.47291404	     -6.34621246	     -1.31225208
      1.31000000	    -15.18955881	     10.28571412	    -17.16820621	     -1.19377974	      0.90606204	     -0.31042890	     60.24830783	     -6.48968441	     -2.83452526	    -60.05845436	     24.97437420	     -3.66491538	     18.84737223	     10.76863811	      3.63199156	    -31.42643117	     37.42805454	     -7.84684082	    -10.56738569	     -6.21548177	     -1.97905259
      1.32000000	    -15.54898437	     10.44977942	    -16.52761357	     -1.18461419	      0.90431116	     -0.30817619	     60.99907150	     -7.18175497	     -3.39211403	    -59.36485878	     24.66555679	     -2.95638628	     18.20331433	     10.89442987	      4.03105893	    -30.67199440	     37.43383591	     -7.52693665	    -10.62452684	     -6.04357603	     -2.62638275
      1.33000000	    -15.92424329	     10.57839923	    -15.88359698	     -1.17511991	      0.90248441	     -0.30577988	     61.68951934	     -7.86100840	     -3.98485806	    -58.70332184	     24.26646693	     -2.22417692	     17.52116124	     10.97347555	      4.48526078	    -29.89479844	     37.45613091	     -7.23569210	    -10.65503152	     -5.81965748	     -3.25762079
      1.34000000	    -16.32556334	     10.66350057	    -15.23082213	     -1.16534482	      0.90054255	     -0.30324397	     62.33220218	     -8.51351157	     -4.60697496	    -58.10199843	     23.73452811	     -1.39261651	     16.82683241	     10.99327102	      4.99057582	    -29.12431438	     37.50178409	     -6.96375298	    -10.65305725	     -5.53265038	     -3.88935658
      1.35000000	    -16.76125306	     10.69190501	    -14.55019216	     -1.15532158	      0.89846818	     -0.30061565	     62.92538229	     -9.14643941	     -5.28261695	    -57.57837780	     23.07424191	     -0.53792893	     16.13685200	     10.94549686	      5.57693359	    -28.37873797	     37.55994659	     -6.72334496	    -10.61950316	     -5.16154871	     -4.52905502
      1.36000000	    -17.24941749	     10.64984858	    -13.82377463	     -1.14508785	      0.89622563	     -0.29792745	     63.47819028	     -9.75915163	     -6.02674882	    -57.15399669	     22.28854138	      0.34120366	     15.48899231	     10.81588063	      6.25782951	    -27.69974822	     37.63245214	     -6.50073035	    -10.53976083	     -4.68510159	     -5.18096279
      1.37000000	    -17.79512715	     10.52338783	    -13.04600680	     -1.13465762	      0.89380719	     -0.29519792	     63.97915874	    -10.34934181	     -6.86363320	    -56.84085771	     21.41778209	      1.14632352	     14.90657391	     10.59408487	      7.03892688	    -27.12066845	     37.71033648	     -6.28783510	    -10.40826516	     -4.08639124	     -5.84301572
      1.38000000	    -18.39589500	     10.32188308	    -12.23900901	     -1.12406749	      0.89118963	     -0.29238037	     64.43849725	    -10.89366835	     -7.75514700	    -56.66936164	     20.45787959	      1.91726263	     14.42590617	     10.27791886	      7.83759650	    -26.69215399	     37.78122166	     -6.06318363	    -10.21796245	     -3.37873075	     -6.53102147
      1.39000000	    -19.03431129	     10.05203009	    -11.43097915	     -1.11327042	      0.88840978	     -0.28944410	     64.82357278	    -11.37875346	     -8.69889126	    -56.63292714	     19.50102127	      2.51614755	     14.04920987	      9.88155583	      8.62629503	    -26.44242097	     37.82849932	     -5.81243094	     -9.97320736	     -2.57686036	     -7.20658579
      1.40000000	    -19.65777605	      9.72461665	    -10.65824387	     -1.10225297	      0.88556420	     -0.28628940	     65.08153909	    -11.78229098	     -9.66745089	    -56.73676685	     18.63424576	      2.81883215	     13.74839882	      9.41965271	      9.35244505	    -26.40422532	     37.81931185	     -5.54785919	     -9.72999888	     -1.71324663	     -7.87901130
      1.41000000	    -20.34803318	      9.37900556	     -9.95627742	     -1.09104810	      0.88250919	     -0.28285653	     65.30735458	    -12.06581009	    -10.62448914	    -56.97021171	     17.95396047	      2.74386069	     13.66235665	      8.92033140	      9.97772687	    -26.66534128	     37.73899384	     -5.09367914	     -9.37211088	     -0.82839369	     -8.40996926
      1.42000000	    -20.94534248	      9.00858090	     -9.37446253	     -1.07955305	      0.87955397	     -0.27906407	     65.32138916	    -12.20822978	    -11.53434254	    -57.30218443	     17.61219412	      2.09412220	     13.63229345	      8.40778709	     10.48140339	    -27.24364059	     37.53789824	     -4.57628521	     -9.09495868	      0.05809465	     -8.87141983
      1.43000000	    -21.46556977	      8.63973022	     -8.94758562	     -1.06779317	      0.87670332	     -0.27490811	     65.15028030	    -12.17814612	    -12.34385008	    -57.69368528	     17.69878989	      0.99249992	     13.72276828	      7.91832289	     10.86330959	    -28.22673089	     37.14974352	     -3.96031672	     -8.88359729	      0.92522021	     -9.17047333
      1.44000000	    -21.89204669	      8.29237377	     -8.70382188	     -1.05579509	      0.87401328	     -0.27030480	     64.79354437	    -11.94553958	    -12.99002248	    -58.10603290	     18.27697806	     -0.36073089	     13.95759561	      7.47422965	     11.10131094	    -29.68683046	     36.51535458	     -3.23440079	     -8.76720577	      1.73406288	     -9.27965725
      1.45000000	    -22.22090487	      7.97534477	     -8.67215080	     -1.04359997	      0.87152655	     -0.26523752	     64.26941095	    -11.47314330	    -13.40602460	    -58.49043589	     19.29765387	     -1.80492788	     14.37042103	      7.09007392	     11.18579190	    -31.68984820	     35.57638355	     -2.36666093	     -8.76666438	      2.47577611	     -9.16180793
